<?xml version="1.0" standalone="no"?><!DOCTYPE svg PUBLIC "-//W3C//DTD SVG 1.1//EN" "http://www.w3.org/Graphics/SVG/1.1/DTD/svg11.dtd"><svg t="1749371657146" class="icon" viewBox="0 0 1024 1024" version="1.1" xmlns="http://www.w3.org/2000/svg" p-id="4066" xmlns:xlink="http://www.w3.org/1999/xlink" width="200" height="200"><path d="M0 0m0 0l1024 0q0 0 0 0l0 1024q0 0 0 0l-1024 0q0 0 0 0l0-1024q0 0 0 0Z" fill="#FFFFFF" fill-opacity="0" p-id="4067"></path><path d="M676.113067 408.832l-33.2288-68.164267L738.577067 102.4h156.586666c43.008 0.324267 77.687467 35.771733 77.636267 79.36v643.9424c-0.853333 43.195733-35.003733 78.114133-77.653333 79.36H490.3936l106.427733-140.3904c138.001067-0.341333 258.338133-0.938667 258.338134-1.9968V329.130667c-33.723733-68.317867-90.624-12.014933-106.0352 3.2768l-1.6384 1.604266-71.355734 74.820267z m-98.474667 103.236267L496.469333 340.650667 559.735467 102.4H128.853333C86.562133 101.802667 51.780267 136.072533 51.2 178.926933l0.017067 2.816v643.959467c-0.0512 43.588267 34.645333 79.018667 77.653333 79.36h304.384l68.573867-140.202667c-157.3888 0.273067-307.882667 0.273067-307.882667 0.273067l0.1024-0.136533a40.994133 40.994133 0 0 1-22.562133-7.338667 28.689067 28.689067 0 0 1-2.5088-44.100267l155.272533-213.0432a35.037867 35.037867 0 0 1 45.056-4.898133l135.236267 93.0816 73.1136-76.6464z m-325.973333-98.218667c-44.663467 0-80.896-35.106133-80.896-78.404267 0-43.3152 36.232533-78.421333 80.896-78.421333 44.373333 0.4096 80.145067 35.396267 80.145066 78.421333 0.785067 42.530133-34.133333 77.636267-78.0288 78.404267h-2.116266z" fill="#D7E0F6" p-id="4068"></path></svg>